<?xml version="1.0" encoding="UTF-8"?>
<svg id="Capa_1" data-name="Capa 1" xmlns="http://www.w3.org/2000/svg" viewBox="0 0 2834.65 925.48">
  <defs>
    <style>
      .cls-1 {
        fill: #232320;
      }

      .cls-2 {
        fill: #fff;
      }

      .cls-3 {
        fill: #b50821;
      }

      .cls-4 {
        fill: #4c4c4c;
      }
    </style>
  </defs>
  <rect class="cls-2" x="-33.07" y="-25.57" width="2900.79" height="976.62"/>
  <g>
    <g>
      <path class="cls-1" d="M737.36,447.86c-2.74,5.35-6.68,9.81-11.8,13.38s-11.28,6.24-18.47,8.02-15.17,2.68-23.92,2.68h-74.11v-156.04h72.32c16.02,0,28.59,3.64,37.72,10.92,9.12,7.28,13.69,17.09,13.69,29.42v.45c0,4.46-.56,8.4-1.66,11.81-1.11,3.42-2.58,6.5-4.43,9.25s-3.98,5.17-6.42,7.25-5.06,3.87-7.86,5.35c9.02,3.42,16.12,8.06,21.3,13.93s7.77,14.01,7.77,24.41v.45c0,7.13-1.37,13.38-4.12,18.73h-.01ZM698.89,362.04c0-5.2-1.93-9.17-5.79-11.93-3.87-2.75-9.44-4.12-16.72-4.12h-33.88v32.99h31.65c7.58,0,13.6-1.3,18.06-3.9s6.69-6.8,6.69-12.6v-.45h-.01ZM707.59,424.46c0-5.2-2-9.32-6.02-12.37-4.01-3.04-10.48-4.57-19.39-4.57h-39.68v34.33h40.79c7.58,0,13.52-1.37,17.83-4.12s6.46-7.02,6.46-12.82v-.45h.01Z"/>
      <path class="cls-1" d="M770,471.94v-156.04h117.48v30.54h-83.59v31.65h73.56v30.54h-73.56v32.77h84.7v30.54h-118.59Z"/>
      <path class="cls-1" d="M1014.1,471.94l-33.44-49.93h-26.97v49.93h-34.33v-156.04h71.33c18.58,0,33.03,4.54,43.36,13.6,10.33,9.07,15.49,21.7,15.49,37.9v.45c0,12.63-3.08,22.93-9.25,30.87-6.17,7.95-14.23,13.79-24.19,17.5l38.12,55.73h-40.12ZM1014.76,369.18c0-7.43-2.38-13-7.13-16.72-4.76-3.71-11.37-5.57-19.84-5.57h-34.11v44.81h34.77c8.47,0,14.97-2.01,19.51-6.02,4.53-4.01,6.8-9.36,6.8-16.05v-.45Z"/>
      <path class="cls-1" d="M1202.68,471.94v-101.87l-43.91,66.65h-.89l-43.47-65.98v101.2h-33.88v-156.04h37l41.02,65.98,41.02-65.98h37.01v156.04h-33.9Z"/>
      <path class="cls-1" d="M1402.75,434.94c-3.2,8.77-7.77,16.09-13.71,21.96s-13.15,10.25-21.62,13.15-17.91,4.35-28.31,4.35c-20.95,0-37.45-5.8-49.49-17.39s-18.06-28.9-18.06-51.94v-89.17h34.33v88.27c0,12.78,2.97,22.4,8.92,28.87,5.94,6.46,14.19,9.7,24.74,9.7s18.8-3.12,24.74-9.36,8.92-15.6,8.92-28.09v-89.39h34.33v88.05c0,11.89-1.6,22.22-4.79,30.98h0Z"/>
      <path class="cls-1" d="M1580.3,424.68c-4.01,9.51-9.7,17.76-17.05,24.74-7.36,6.99-16.13,12.48-26.31,16.5s-21.36,6.02-33.55,6.02h-60.85v-156.04h60.85c12.18,0,23.37,1.97,33.55,5.91s18.95,9.4,26.31,16.38c7.35,6.99,13.04,15.2,17.05,24.63,4.01,9.44,6.02,19.65,6.02,30.65v.45c0,11-2,21.25-6.02,30.76ZM1550.43,393.92c0-6.83-1.15-13.15-3.45-18.95-2.31-5.8-5.5-10.77-9.58-14.94-4.09-4.16-9.03-7.39-14.83-9.7-5.79-2.3-12.19-3.46-19.17-3.46h-26.53v94.07h26.53c6.98,0,13.38-1.11,19.17-3.34,5.8-2.23,10.73-5.42,14.83-9.59,4.08-4.16,7.28-9.06,9.58-14.71,2.3-5.65,3.45-11.96,3.45-18.95v-.45.02Z"/>
      <path class="cls-1" d="M1616.85,471.94v-156.04h117.48v30.54h-83.59v31.65h73.56v30.54h-73.56v32.77h84.7v30.54h-118.59Z"/>
      <path class="cls-1" d="M1761.53,471.94v-26.08l85.82-99.87h-83.15v-30.09h127.29v26.08l-85.82,99.87h85.82v30.09h-129.96Z"/>
      <path class="cls-1" d="M2113.06,471.94v-101.87l-43.91,66.65h-.89l-43.47-65.98v101.2h-33.88v-156.04h37l41.02,65.98,41.02-65.98h37.01v156.04h-33.9Z"/>
      <path class="cls-1" d="M2337.09,425.24c-4.16,9.74-9.92,18.28-17.28,25.63-7.36,7.36-16.13,13.15-26.3,17.39-10.18,4.24-21.29,6.35-33.33,6.35s-23.11-2.12-33.22-6.35c-10.11-4.24-18.84-9.95-26.19-17.16-7.35-7.21-13.08-15.68-17.16-25.41-4.09-9.73-6.13-20.17-6.13-31.32v-.45c0-11.15,2.08-21.58,6.24-31.32,4.16-9.73,9.92-18.28,17.28-25.64,7.36-7.36,16.12-13.15,26.3-17.39,10.18-4.24,21.29-6.35,33.33-6.35s23.11,2.12,33.22,6.35c10.1,4.24,18.84,9.96,26.19,17.16,7.36,7.21,13.08,15.68,17.17,25.41,4.09,9.74,6.13,20.17,6.13,31.32v.45c0,11.15-2.09,21.59-6.24,31.32h-.01ZM2307.44,393.92c0-6.69-1.16-13-3.45-18.95-2.31-5.94-5.57-11.15-9.81-15.6-4.23-4.46-9.25-7.99-15.05-10.59-5.79-2.6-12.11-3.9-18.95-3.9s-13.34,1.26-19.06,3.79-10.63,6.02-14.71,10.48c-4.09,4.46-7.28,9.62-9.59,15.49s-3.45,12.15-3.45,18.84v.45c0,6.69,1.15,13.01,3.45,18.95s5.57,11.15,9.81,15.6c4.24,4.46,9.22,7.99,14.94,10.59s12.07,3.9,19.06,3.9,13.15-1.26,18.95-3.79c5.79-2.52,10.73-6.02,14.82-10.48,4.09-4.46,7.28-9.62,9.59-15.49,2.3-5.87,3.45-12.15,3.45-18.84v-.45Z"/>
      <path class="cls-1" d="M2452.11,409.75v62.19h-34.33v-61.52l-59.96-94.52h40.12l37.23,62.64,37.9-62.64h39.01l-59.96,93.85h-.01Z"/>
      <path class="cls-1" d="M2649.61,471.94l-14.27-35h-65.98l-14.27,35h-35l66.87-157.16h31.65l66.88,157.16h-35.89.01ZM2602.36,356.02l-20.73,50.6h41.46l-20.73-50.6Z"/>
    </g>
    <g>
      <path class="cls-1" d="M646.97,624.66v-12.71l45.89-.07v40.2c-7.04,5.62-14.31,9.84-21.8,12.67s-15.17,4.25-23.06,4.25c-10.64,0-20.31-2.28-29-6.84s-15.26-11.14-19.69-19.77-6.65-18.25-6.65-28.89,2.2-20.38,6.61-29.52,10.75-15.92,19.03-20.36c8.28-4.43,17.81-6.65,28.6-6.65,7.83,0,14.91,1.27,21.25,3.8,6.33,2.54,11.29,6.07,14.89,10.6,3.59,4.53,6.33,10.44,8.2,17.73l-12.93,3.55c-1.62-5.52-3.65-9.85-6.06-13s-5.86-5.68-10.34-7.57c-4.48-1.9-9.46-2.84-14.93-2.84-6.55,0-12.22,1-16.99,2.99-4.78,2-8.63,4.62-11.57,7.87s-5.21,6.82-6.84,10.71c-2.76,6.7-4.13,13.97-4.13,21.8,0,9.66,1.66,17.73,4.98,24.24,3.33,6.5,8.17,11.33,14.52,14.48,6.36,3.15,13.1,4.73,20.25,4.73,6.21,0,12.27-1.19,18.18-3.58s10.39-4.94,13.45-7.65v-20.17h-31.86Z"/>
      <path class="cls-1" d="M731.84,667.15v-108.32h78.32v12.78h-63.99v33.18h59.92v12.71h-59.92v36.87h66.5v12.78h-80.83Z"/>
      <path class="cls-1" d="M845.16,632.35l13.52-1.18c.64,5.42,2.13,9.86,4.47,13.34,2.34,3.47,5.97,6.28,10.9,8.42s10.47,3.21,16.63,3.21c5.47,0,10.29-.81,14.48-2.44s7.3-3.85,9.35-6.69c2.05-2.83,3.07-5.92,3.07-9.27s-.99-6.37-2.96-8.9c-1.97-2.54-5.22-4.67-9.75-6.39-2.91-1.13-9.34-2.89-19.28-5.28-9.95-2.39-16.92-4.64-20.91-6.76-5.17-2.71-9.03-6.07-11.57-10.09-2.54-4.01-3.8-8.51-3.8-13.48,0-5.47,1.55-10.58,4.65-15.33,3.1-4.75,7.64-8.36,13.6-10.82,5.96-2.46,12.59-3.69,19.88-3.69,8.03,0,15.11,1.29,21.24,3.88,6.14,2.59,10.85,6.39,14.15,11.42,3.3,5.02,5.07,10.71,5.32,17.07l-13.74,1.03c-.74-6.85-3.24-12.02-7.5-15.52s-10.55-5.25-18.88-5.25-14.99,1.59-18.95,4.77c-3.97,3.18-5.95,7.01-5.95,11.49,0,3.89,1.4,7.09,4.21,9.61,2.76,2.51,9.96,5.09,21.61,7.72,11.65,2.64,19.64,4.94,23.97,6.91,6.31,2.91,10.96,6.59,13.97,11.05,3,4.46,4.51,9.59,4.51,15.41s-1.65,11.19-4.95,16.29-8.04,9.06-14.22,11.9c-6.18,2.83-13.14,4.25-20.88,4.25-9.8,0-18.02-1.43-24.64-4.29-6.63-2.86-11.82-7.16-15.59-12.89-3.77-5.74-5.75-12.23-5.95-19.47v-.03Z"/>
      <path class="cls-1" d="M996.08,667.15v-95.54h-35.69v-12.78h85.86v12.78h-35.84v95.54h-14.33,0Z"/>
      <path class="cls-1" d="M1080.95,667.15v-108.32h14.34v108.32h-14.34Z"/>
      <path class="cls-1" d="M1133.75,614.39c0-17.98,4.83-32.06,14.48-42.23s22.12-15.26,37.39-15.26c10,0,19.02,2.39,27.04,7.17,8.03,4.78,14.15,11.44,18.36,19.99s6.32,18.24,6.32,29.08-2.22,20.81-6.65,29.48-10.71,15.23-18.84,19.69-16.9,6.69-26.3,6.69c-10.2,0-19.31-2.46-27.34-7.39-8.03-4.93-14.11-11.65-18.25-20.17-4.13-8.52-6.21-17.54-6.21-27.04h0ZM1148.53,614.61c0,13.05,3.51,23.34,10.53,30.85,7.02,7.51,15.83,11.27,26.42,11.27s19.67-3.79,26.64-11.38c6.97-7.58,10.46-18.35,10.46-32.29,0-8.82-1.49-16.51-4.47-23.09s-7.34-11.67-13.08-15.29-12.18-5.43-19.32-5.43c-10.15,0-18.88,3.48-26.19,10.46-7.32,6.97-10.97,18.61-10.97,34.91h-.02ZM1176.46,552.18l9.83-20.69h17.44l-16.26,20.69h-11.01,0Z"/>
      <path class="cls-1" d="M1273.22,667.15v-108.32h14.7l56.9,85.05v-85.05h13.74v108.32h-14.7l-56.9-85.12v85.12h-13.74Z"/>
      <path class="cls-1" d="M1462.24,667.15v-108.32h14.34v108.32h-14.34Z"/>
      <path class="cls-1" d="M1519.26,667.15v-108.32h14.7l56.89,85.05v-85.05h13.74v108.32h-14.7l-56.9-85.12v85.12h-13.74.01Z"/>
      <path class="cls-1" d="M1645.8,667.15v-108.32h21.58l25.64,76.7c2.37,7.14,4.09,12.49,5.17,16.03,1.23-3.94,3.15-9.73,5.76-17.36l25.94-75.37h19.28v108.32h-13.82v-90.66l-31.48,90.66h-12.93l-31.33-92.21v92.21h-13.82,0Z"/>
      <path class="cls-1" d="M1785.49,614.39c0-17.98,4.83-32.06,14.48-42.23s22.12-15.26,37.39-15.26c10,0,19.02,2.39,27.04,7.17,8.03,4.78,14.15,11.44,18.36,19.99s6.32,18.24,6.32,29.08-2.22,20.81-6.65,29.48-10.71,15.23-18.84,19.69-16.9,6.69-26.3,6.69c-10.2,0-19.31-2.46-27.34-7.39-8.03-4.93-14.11-11.65-18.25-20.17-4.13-8.52-6.21-17.54-6.21-27.04h0ZM1800.27,614.61c0,13.05,3.51,23.34,10.53,30.85,7.02,7.51,15.83,11.27,26.42,11.27s19.67-3.79,26.64-11.38c6.97-7.58,10.46-18.35,10.46-32.29,0-8.82-1.49-16.51-4.47-23.09s-7.34-11.67-13.08-15.29-12.18-5.43-19.32-5.43c-10.15,0-18.88,3.48-26.19,10.46-7.32,6.97-10.97,18.61-10.97,34.91h-.02Z"/>
      <path class="cls-1" d="M1924.52,667.15v-108.32h40.64c8.28,0,14.91,1.1,19.91,3.29s8.91,5.57,11.75,10.12c2.83,4.56,4.25,9.32,4.25,14.3,0,4.63-1.25,8.99-3.77,13.08-2.51,4.09-6.31,7.39-11.38,9.9,6.55,1.92,11.59,5.2,15.11,9.83s5.29,10.1,5.29,16.4c0,5.07-1.07,9.79-3.22,14.15-2.14,4.36-4.79,7.72-7.94,10.09-3.15,2.36-7.11,4.15-11.86,5.36-4.75,1.21-10.58,1.81-17.47,1.81h-41.31ZM1938.86,604.34h23.42c6.35,0,10.91-.42,13.67-1.26,3.65-1.08,6.39-2.88,8.24-5.39s2.77-5.66,2.77-9.46c0-3.6-.86-6.76-2.59-9.5-1.73-2.73-4.19-4.6-7.39-5.61-3.2-1.01-8.7-1.52-16.48-1.52h-21.65v32.73h0ZM1938.86,654.37h26.97c4.63,0,7.88-.17,9.75-.52,3.3-.59,6.06-1.58,8.28-2.96,2.21-1.38,4.04-3.39,5.47-6.02,1.43-2.63,2.14-5.68,2.14-9.13,0-4.04-1.03-7.55-3.1-10.53-2.07-2.98-4.94-5.07-8.61-6.28s-8.95-1.81-15.85-1.81h-25.05v37.24h0Z"/>
      <path class="cls-1" d="M2046.04,667.15v-108.32h14.34v108.32h-14.34Z"/>
      <path class="cls-1" d="M2102.61,667.15v-108.32h14.33v95.54h53.35v12.78h-67.68Z"/>
      <path class="cls-1" d="M2207.35,667.15v-108.32h14.33v108.32h-14.33Z"/>
      <path class="cls-1" d="M2252.61,667.15l41.6-108.32h15.44l44.33,108.32h-16.33l-12.63-32.81h-45.3l-11.89,32.81h-15.22ZM2283.87,622.67h36.73l-11.31-30c-3.45-9.11-6.01-16.6-7.68-22.46-1.38,6.95-3.33,13.84-5.84,20.69l-11.9,31.77Z"/>
      <path class="cls-1" d="M2383.22,667.15v-108.32h48.03c9.65,0,17,.97,22.02,2.92,5.03,1.95,9.04,5.38,12.04,10.31,3.01,4.93,4.51,10.37,4.51,16.33,0,7.69-2.49,14.16-7.46,19.43-4.98,5.27-12.66,8.62-23.06,10.05,3.79,1.82,6.68,3.62,8.65,5.39,4.19,3.84,8.15,8.65,11.9,14.41l18.84,29.48h-18.03l-14.34-22.54c-4.19-6.5-7.63-11.48-10.34-14.93-2.71-3.45-5.13-5.86-7.28-7.24-2.14-1.38-4.32-2.34-6.54-2.88-1.62-.34-4.28-.52-7.98-.52h-16.62v48.1h-14.34,0ZM2397.55,606.63h30.81c6.55,0,11.67-.68,15.37-2.03,3.7-1.35,6.5-3.52,8.42-6.5s2.88-6.22,2.88-9.72c0-5.12-1.86-9.33-5.58-12.63s-9.59-4.95-17.62-4.95h-34.29v35.84h.01Z"/>
      <path class="cls-1" d="M2512.27,667.15v-108.32h14.34v108.32h-14.34Z"/>
      <path class="cls-1" d="M2557.53,667.15l41.6-108.32h15.44l44.34,108.32h-16.33l-12.64-32.81h-45.29l-11.9,32.81h-15.22ZM2588.79,622.67h36.72l-11.3-30c-3.45-9.11-6.01-16.6-7.69-22.46-1.38,6.95-3.33,13.84-5.84,20.69l-11.89,31.77Z"/>
    </g>
  </g>
  <g>
    <polygon class="cls-4" points="149.14 587.34 325.44 489.05 496.79 592.19 499.8 758.67 414.13 707.02 407.67 628.96 326.94 700.35 250.91 630.78 247.54 707.02 154.08 758.67 149.14 587.34"/>
    <path class="cls-3" d="M497.95,330l-1.15-118.71-169.86-97.61-177.8,105.72v301.36l175.06-107.76,175.59,107.76-1.85-190.76h.01ZM457.84,433.34l-80.65-44.63,1.08-71.49,79.57,42.74v73.39h0ZM457.84,309.02l-78.42-46.48-2.23-72.52,80.65,45.3v73.7h0Z"/>
  </g>
</svg>